<svg width="32" height="38" xmlns="http://www.w3.org/2000/svg"><path d="M23.998.76c0 1.9-.695 3.674-2.078 5.315-1.669 1.953-3.688 3.08-5.878 2.903a5.808 5.808 0 0 1-.044-.722c0-1.823.794-3.774 2.204-5.37.703-.808 1.599-1.48 2.683-2.015C21.97.34 22.995.05 23.958 0c.029.255.04.507.04.76m7.33 28.843a20.62 20.62 0 0 1-2.042 3.674c-1.074 1.53-1.954 2.59-2.632 3.178-1.05.967-2.176 1.462-3.381 1.49-.866 0-1.909-.247-3.123-.746-1.218-.497-2.338-.744-3.362-.744-1.075 0-2.226.247-3.458.744-1.235.499-2.229.76-2.987.785-1.156.05-2.308-.459-3.458-1.53-.734-.638-1.653-1.737-2.753-3.291-1.179-1.66-2.15-3.585-2.91-5.78C.41 25.013 0 22.718 0 20.494c0-2.546.552-4.741 1.654-6.58a9.69 9.69 0 0 1 3.46-3.501 9.322 9.322 0 0 1 4.678-1.32c.917 0 2.12.285 3.616.842 1.492.561 2.45.844 2.87.844.313 0 1.378-.333 3.182-.993 1.706-.614 3.146-.869 4.325-.768 3.196.257 5.598 1.517 7.193 3.788-2.858 1.73-4.271 4.157-4.243 7.27.025 2.423.905 4.44 2.634 6.041a8.626 8.626 0 0 0 2.631 1.725 28.84 28.84 0 0 1-.671 1.761" fill="#47CC8A" fill-rule="evenodd"/></svg>