<svg width="108" height="80" xmlns="http://www.w3.org/2000/svg" xmlns:xlink="http://www.w3.org/1999/xlink"><defs><path d="M77.254 21.821A39.846 39.846 0 0 0 51 12c-22.091 0-40 17.909-40 40" id="a"/><mask id="b" x="0" y="0" width="66.254" height="40" fill="#fff"><use xlink:href="#a"/></mask><circle id="c" cx="51" cy="50" r="8"/><circle id="d" cx="99" cy="51" r="3"/><circle id="e" cx="51" cy="3" r="3"/><circle id="f" cx="3" cy="51" r="3"/></defs><g transform="translate(3 11)" fill="none" fill-rule="evenodd"><path d="M99.477 50.5C98.685 24.408 77.284 3.5 51 3.5c-26.284 0-47.685 20.908-48.477 47h96.954z" stroke="#29CC7A" stroke-width="3"/><use stroke="#29CC7A" mask="url(#b)" stroke-width="4" stroke-dasharray="3,4" xlink:href="#a"/><use fill="#FFF" xlink:href="#c"/><circle stroke="#266CEF" stroke-width="3" cx="51" cy="50" r="6.5"/><use fill="#266CEF" xlink:href="#d"/><circle stroke="#FFF" stroke-width="3" cx="99" cy="51" r="4.5"/><use fill="#29CC7A" xlink:href="#e"/><circle stroke="#FFF" stroke-width="3" cx="51" cy="3" r="4.5"/><g><use fill="#29CC7A" xlink:href="#f"/><circle stroke="#FFF" stroke-width="3" cx="3" cy="51" r="4.5"/></g><path d="M56 44l19.548-22.548" stroke="#266CEF" stroke-width="3" stroke-linecap="round"/></g></svg>