<svg width="32" height="38" xmlns="http://www.w3.org/2000/svg"><path d="M26.426 11.974H5.55c.005-3.6 2.148-6.737 5.32-8.387L9.221.609a.333.333 0 0 1 .581-.323l1.67 3.011a11.12 11.12 0 0 1 4.517-.946c1.618 0 3.15.34 4.517.946L22.175.286a.333.333 0 0 1 .582.323l-1.651 2.978c3.172 1.65 5.315 4.787 5.32 8.387zm0 .825v15.129a2.523 2.523 0 0 1-2.523 2.523h-1.675v5.161c0 1.29-1.05 2.34-2.34 2.34-1.29 0-2.34-1.05-2.34-2.34v-5.161h-3.12v5.161c0 1.29-1.049 2.34-2.34 2.34-1.29 0-2.339-1.05-2.339-2.34v-5.161H8.075a2.523 2.523 0 0 1-2.524-2.523V12.799h20.875zm3.211-.401c1.29 0 2.34 1.05 2.34 2.34v9.749c0 1.29-1.05 2.34-2.34 2.34-1.29 0-2.34-1.05-2.34-2.34v-9.75c0-1.29 1.05-2.34 2.34-2.34zm-27.297 0c1.29 0 2.34 1.05 2.34 2.34v9.749c0 1.29-1.05 2.34-2.34 2.34-1.29 0-2.34-1.05-2.34-2.34v-9.75c0-1.29 1.05-2.34 2.34-2.34zM11.17 6.41a.873.873 0 0 0 0 1.743.873.873 0 0 0 0-1.743zm9.635 0a.873.873 0 0 0 0 1.743.873.873 0 0 0 0-1.743z" fill="#47CC8A" fill-rule="evenodd"/></svg>