<svg width="85" height="80" xmlns="http://www.w3.org/2000/svg" xmlns:xlink="http://www.w3.org/1999/xlink"><defs><path d="M66.5 49C75.613 49 83 41.613 83 32.5S75.613 16 66.5 16 50 23.387 50 32.5 57.387 49 66.5 49z" id="a"/><mask id="b" x="-2" y="-2" width="37" height="37"><path fill="#fff" d="M48 14h37v37H48z"/><use xlink:href="#a"/></mask></defs><g transform="translate(0 3)" fill="none" fill-rule="evenodd"><rect stroke="#29CC7A" stroke-width="3" x="1.5" y="28.5" width="61" height="45" rx="5"/><path d="M13.5 28.5h37V20C50.5 9.783 42.217 1.5 32 1.5S13.5 9.783 13.5 20v8.5z" stroke="#29CC7A" stroke-width="3"/><path d="M28 52.745a7 7 0 1 1 8 0V59a4 4 0 1 1-8 0v-6.255z" stroke="#29CC7A" stroke-width="2" stroke-linejoin="round"/><use stroke="#29CC7A" mask="url(#b)" stroke-width="4" fill="#FFF" stroke-dasharray="3.5,3" xlink:href="#a"/><path d="M66.5 49C75.613 49 83 41.613 83 32.5S75.613 16 66.5 16 50 23.387 50 32.5 57.387 49 66.5 49z" fill="#FFF"/><path stroke="#266CEF" stroke-width="3" stroke-linecap="round" stroke-linejoin="round" d="M58 32.466l5.925 5.925L75.316 27"/></g></svg>