<svg width="86" height="80" xmlns="http://www.w3.org/2000/svg"><g transform="translate(-1 4)" fill="none" fill-rule="evenodd"><circle stroke="#266CEF" stroke-width="3" cx="42" cy="36" r="34.5"/><path d="M12.577 18.024h58.436M8.736 36.187h67.19" stroke="#266CEF" stroke-width="2"/><ellipse stroke="#266CEF" stroke-width="2" cx="42" cy="36" rx="11" ry="35"/><path d="M12.722 54h58.284" stroke="#266CEF" stroke-width="2"/><path d="M64.127 56.428c2.093 2.405 9.579 4.51 13.503.694 2.617-2.544 4.69-7.048 6.22-13.512-10.521-.935-16.61.117-18.265 3.154-2.483 4.557-3.55 7.258-1.458 9.664z" fill="#FFF"/><path d="M68.076 60.747c-1.827-.49-3.726-1.435-5.685-2.836a1.5 1.5 0 0 1-.62-1.074c-.67-6.885 1.895-10.622 4.164-12.546 4.03-3.414 10.704-4.203 18.312-2.165a1.5 1.5 0 0 1 1.061 1.838c-2.485 9.275-6.216 14.863-11.082 16.608-1.94.697-3.996.752-6.15.175zm-3.377-4.885c3.192 2.132 6.052 2.766 8.514 1.887 3.596-1.288 6.618-5.8 8.78-13.085-6.005-1.322-11.097-.644-14.119 1.916-2.376 2.014-3.443 5.135-3.175 9.282zm-6.95 4.011a1.501 1.501 0 0 1 .479-2.946c.115.004 7.154.252 14.993-7.657a1.5 1.5 0 1 1 2.13 2.112c-8.892 8.972-16.969 8.56-17.307 8.537l-.294-.046z" fill="#29CC7A" fill-rule="nonzero"/><path d="M18.236 24.556c-2.913 1.295-10.587.04-12.531-5.078-1.296-3.41-1.272-8.37.074-14.875 9.93 3.6 15.003 7.126 15.22 10.578.325 5.18.15 8.079-2.763 9.375z" fill="#FFF"/><path d="M12.53 26.07c1.863.328 3.984.274 6.351-.168a1.5 1.5 0 0 0 1.017-.712c3.516-5.957 2.77-10.427 1.527-13.13-2.21-4.797-7.925-8.333-15.682-9.7a1.5 1.5 0 0 0-1.737 1.216C2.338 13.033 3.357 19.674 7.03 23.31c1.464 1.453 3.303 2.371 5.5 2.758zm5.125-3c-3.793.582-6.653-.051-8.513-1.889-2.715-2.687-3.547-8.054-2.428-15.57 6.001 1.34 10.33 4.107 11.986 7.704 1.303 2.83.95 6.11-1.045 9.754zm4.603 6.571a1.501 1.501 0 0 0 .811-2.873c-.105-.044-6.59-2.794-10.351-13.274a1.5 1.5 0 1 0-2.823 1.013c4.267 11.89 11.761 14.93 12.078 15.052l.285.082z" fill="#29CC7A" fill-rule="nonzero"/></g></svg>