<svg width="112" height="80" xmlns="http://www.w3.org/2000/svg" xmlns:xlink="http://www.w3.org/1999/xlink"><defs><circle id="a" cx="31.5" cy="31.5" r="31.5"/></defs><g fill="none" fill-rule="evenodd"><g stroke="#29CC7A"><path stroke-width="3" stroke-linecap="round" d="M2 20h20l10 10"/><path d="M2 30h20l10 10M2 50h20l10-10M2 70h20l12-12M2 10h20l12 12M2 40h30" stroke-width="2" stroke-linejoin="round" stroke-dasharray="3,3"/><path stroke-width="3" stroke-linecap="round" d="M2 60h20l10-10"/></g><g stroke="#29CC7A"><path stroke-width="3" stroke-linecap="round" d="M110 20H90L80 30"/><path d="M110 30H90L80 40M110 50H90L80 40M110 70H90L78 58M110 10H90L78 22M110 40H80" stroke-width="2" stroke-linejoin="round" stroke-dasharray="3,3"/><path stroke-width="3" stroke-linecap="round" d="M110 60H90L80 50"/></g><g transform="translate(25 9)"><use fill="#FFF" xlink:href="#a"/><circle stroke="#266CEF" stroke-width="3" cx="31.5" cy="31.5" r="30"/></g><path d="M55 45h-6v-2h6v-3h-6v-2h6V28h-9v3h-3v-6h26v6h-3v-3h-8v10h6v2h-6v3h6v2h-6v10h-3V45z" fill="#266CEF"/></g></svg>