<svg width="84" height="80" xmlns="http://www.w3.org/2000/svg" xmlns:xlink="http://www.w3.org/1999/xlink"><defs><path d="M63.5 71C72.613 71 80 63.613 80 54.5S72.613 38 63.5 38 47 45.387 47 54.5 54.387 71 63.5 71z" id="a"/><mask id="b" x="-2" y="-2" width="37" height="37"><path fill="#fff" d="M45 36h37v37H45z"/><use xlink:href="#a"/></mask></defs><g transform="translate(2 5)" fill="none" fill-rule="evenodd"><path d="M51 32.162h17L34 70 0 32.162h17V0h34v32.162z" stroke="#29CC7A" stroke-width="3" stroke-linecap="round" stroke-linejoin="round"/><use stroke="#29CC7A" mask="url(#b)" stroke-width="4" fill="#FFF" stroke-dasharray="3.5,3" xlink:href="#a"/><path d="M63 63.375a9 9 0 0 1 0-17.75V43a1 1 0 0 1 2 0v2.514a8.967 8.967 0 0 1 5.864 2.622l-2.121 2.121a6 6 0 1 0 0 8.486l2.121 2.121A8.967 8.967 0 0 1 65 63.486V66a1 1 0 0 1-2 0v-2.625z" fill="#266CEF" fill-rule="nonzero"/></g></svg>