<svg width="90" height="80" xmlns="http://www.w3.org/2000/svg" xmlns:xlink="http://www.w3.org/1999/xlink"><defs><path d="M3 6a3 3 0 1 1 0-6 3 3 0 0 1 0 6zm30 27a3 3 0 1 1 0-6 3 3 0 0 1 0 6zm4 35a3 3 0 1 1 0-6 3 3 0 0 1 0 6zm21-11a3 3 0 1 1 0-6 3 3 0 0 1 0 6zm3-39a3 3 0 1 1 0-6 3 3 0 0 1 0 6zM9 47a3 3 0 1 1 0-6 3 3 0 0 1 0 6z" id="b"/><path d="M69.5 71C78.613 71 86 63.613 86 54.5S78.613 38 69.5 38 53 45.387 53 54.5 60.387 71 69.5 71z" id="a"/><mask id="c" x="-2" y="-2" width="37" height="37"><path fill="#fff" d="M51 36h37v37H51z"/><use xlink:href="#a"/></mask></defs><g transform="translate(2 5)" fill="none" fill-rule="evenodd"><path stroke="#29CC7A" stroke-width="3" stroke-linecap="round" stroke-linejoin="round" d="M61.164 14.814l-2.98 39.035-20.965 11.628L9.101 44.18 2.778 2.915z"/><path d="M9.01 44.544l24.025-15.002 28.253-14.176" stroke="#29CC7A" stroke-width="2" stroke-dasharray="4,3"/><path stroke="#29CC7A" stroke-width="3" d="M2.724 2.983l30.013 26.568 4.13 35.172M58.419 54.375L32.831 29.897"/><use fill="#266CEF" xlink:href="#b"/><path stroke="#FFF" stroke-width="2" d="M3 7a4 4 0 1 1 0-8 4 4 0 0 1 0 8zm30 27a4 4 0 1 1 0-8 4 4 0 0 1 0 8zm4 35a4 4 0 1 1 0-8 4 4 0 0 1 0 8zm21-11a4 4 0 1 1 0-8 4 4 0 0 1 0 8zm3-39a4 4 0 1 1 0-8 4 4 0 0 1 0 8zM9 48a4 4 0 1 1 0-8 4 4 0 0 1 0 8z"/><use stroke="#29CC7A" mask="url(#c)" stroke-width="4" fill="#FFF" stroke-dasharray="3.5,3" xlink:href="#a"/><path stroke="#266CEF" stroke-width="3" stroke-linecap="round" stroke-linejoin="round" d="M61 54.466l5.925 5.925L78.316 49"/></g></svg>